<svg width="28" height="28" viewBox="0 0 28 28" fill="none" xmlns="http://www.w3.org/2000/svg">
<path fill-rule="evenodd" clip-rule="evenodd" d="M5.64913 0.563843C5.64913 0.252436 5.90205 0 6.21403 0H7.34386C7.65585 0 7.90877 0.252436 7.90877 0.563843V3.38307H19.2071V0.563843C19.2071 0.252436 19.4599 0 19.7719 0H20.9018C21.2137 0 21.4666 0.252436 21.4666 0.563843V3.38307H24.8561C26.1041 3.38307 27.1158 4.39283 27.1158 5.63845V21.2211C27.1158 19.337 26.2319 17.6593 24.8561 16.5802V11.2769H2.25965V22.5537C2.25965 23.1766 2.76549 23.6815 3.38947 23.6815H15.8627C16.2745 24.5768 16.9041 25.3511 17.6836 25.9368H2.25965C1.01168 25.9368 0 24.9271 0 23.6815V5.63845C0 4.39283 1.01168 3.38307 2.25965 3.38307H5.64913V0.563843ZM7.90877 5.63845H19.2071V6.76613C19.2071 7.07754 19.4599 7.32998 19.7719 7.32998H20.9018C21.2137 7.32998 21.4666 7.07754 21.4666 6.76613V5.63845H23.7263C24.3503 5.63845 24.8561 6.14333 24.8561 6.76613V9.02154H2.25965V6.76613C2.25965 6.14333 2.76549 5.63845 3.38947 5.63845H5.64913V6.76613C5.64913 7.07754 5.90205 7.32998 6.21403 7.32998H7.34386C7.65585 7.32998 7.90877 7.07754 7.90877 6.76613V5.63845Z" fill="#01CFC9"/>
<path fill-rule="evenodd" clip-rule="evenodd" d="M21.2213 16.2106C18.4541 16.2106 16.2108 18.4539 16.2108 21.2211C16.2108 23.9883 18.4541 26.2316 21.2213 26.2316C23.9886 26.2316 26.2319 23.9883 26.2319 21.2211C26.2319 18.4539 23.9886 16.2106 21.2213 16.2106ZM14.4424 21.2211C14.4424 17.4772 17.4775 14.4421 21.2213 14.4421C24.9652 14.4421 28.0003 17.4772 28.0003 21.2211C28.0003 24.965 24.9652 28 21.2213 28C17.4775 28 14.4424 24.965 14.4424 21.2211Z" fill="#01CFC9"/>
<path d="M18.2742 20.489C18.5044 20.2589 18.8776 20.2589 19.1079 20.489L20.7747 22.1558C21.0048 22.386 21.0048 22.7593 20.7747 22.9894C20.5444 23.2197 20.1712 23.2197 19.941 22.9894L18.2742 21.3226C18.044 21.0925 18.044 20.7193 18.2742 20.489Z" fill="#01CFC9"/>
<path d="M23.9624 18.9781C23.7321 18.7479 23.359 18.7479 23.1287 18.9781L19.951 22.1558C19.7208 22.3861 19.7208 22.7593 19.951 22.9895C20.1811 23.2197 20.5544 23.2197 20.7846 22.9895L23.9624 19.8117C24.1926 19.5815 24.1926 19.2084 23.9624 18.9781Z" fill="#01CFC9"/>
</svg>
