<svg width="18" height="18" viewBox="0 0 18 18" fill="none" xmlns="http://www.w3.org/2000/svg">
<g clip-path="url(#clip0_3_1874)">
<path d="M15.2779 0H3.29998C1.93173 0 0.818359 1.18295 0.818359 2.63672V15.3633C0.818359 16.817 1.93173 18 3.29998 18H15.2779C16.6462 18 17.7595 16.817 17.7595 15.3633V2.63672C17.7595 1.18295 16.6462 0 15.2779 0ZM9.32204 13.7109C6.8589 13.7109 4.85512 11.5819 4.85512 8.96484C4.85512 6.34776 6.8589 4.21875 9.32204 4.21875C11.7852 4.21875 13.7889 6.34776 13.7889 8.96484C13.7889 11.5819 11.7852 13.7109 9.32204 13.7109ZM14.2853 5.27344C13.4643 5.27344 12.7963 4.56372 12.7963 3.69141C12.7963 2.81909 13.4643 2.10938 14.2853 2.10938C15.1063 2.10938 15.7742 2.81909 15.7742 3.69141C15.7742 4.56372 15.1063 5.27344 14.2853 5.27344Z" fill="white"/>
<path d="M14.2854 3.16406C14.0115 3.16406 13.7891 3.40041 13.7891 3.69141C13.7891 3.98241 14.0115 4.21875 14.2854 4.21875C14.5593 4.21875 14.7817 3.98241 14.7817 3.69141C14.7817 3.40041 14.5593 3.16406 14.2854 3.16406Z" fill="white"/>
<path d="M9.32192 5.27344C7.40642 5.27344 5.84766 6.92963 5.84766 8.96484C5.84766 11.0001 7.40642 12.6563 9.32192 12.6563C11.2374 12.6563 12.7962 11.0001 12.7962 8.96484C12.7962 6.92963 11.2374 5.27344 9.32192 5.27344Z" fill="white"/>
</g>
<defs>
<clipPath id="clip0_3_1874">
<rect width="16.9412" height="18" fill="white" transform="translate(0.818359)"/>
</clipPath>
</defs>
</svg>
