<svg width="81" height="81" viewBox="0 0 81 81" fill="none" xmlns="http://www.w3.org/2000/svg">
<g clip-path="url(#clip0_1_606)">
<path d="M75.471 75.961L71.9298 55.2294C71.5481 52.9957 69.9636 51.2013 67.794 50.5469L58.2427 47.665C58.0449 45.3302 57.0876 43.1274 55.4945 41.3839C54.2201 39.9893 52.6173 38.9739 50.8505 38.4135C51.1528 38.078 51.4332 37.7436 51.6903 37.4165C53.9617 34.5278 55.1777 31.3452 55.4873 29.1735H56.2241C58.1406 29.1735 59.6998 27.6144 59.6998 25.6978V23.9161C59.6998 22.6371 58.9803 21.4781 57.8983 20.8766V16.5922C57.8983 15.9448 57.3734 15.4199 56.726 15.4199C56.0786 15.4199 55.5539 15.9446 55.5539 16.5922V21.4019C55.0974 21.4812 54.5527 21.6182 53.9955 21.8528C53.9384 21.8736 53.8829 21.8977 53.8304 21.9266C53.7045 21.984 53.5785 22.0445 53.453 22.1127V12.6661C53.453 10.0563 51.3298 7.93311 48.72 7.93311H45.4844C44.3685 7.93311 43.2783 8.32193 42.4143 9.02829L42.0968 9.28782C41.5136 9.76467 40.7776 10.0273 40.0242 10.0273C39.2707 10.0273 38.5345 9.76467 37.9513 9.28782L37.634 9.02829C36.77 8.32209 35.6798 7.93311 34.5639 7.93311H31.328C28.7182 7.93311 26.595 10.0563 26.595 12.6661V22.1127C26.4695 22.0445 26.3435 21.984 26.2176 21.9266C26.1651 21.8977 26.1097 21.8736 26.0527 21.8528C25.4955 21.6182 24.9506 21.4812 24.4942 21.4019V9.24014C24.4942 5.44443 27.5823 2.35633 31.378 2.35633H48.6698C52.4656 2.35633 55.5536 5.44443 55.5536 9.24014V11.0828C55.5536 11.7302 56.0784 12.2551 56.7257 12.2551C57.373 12.2551 57.898 11.7304 57.898 11.0828V9.24014C57.898 4.15178 53.7581 0.0119629 48.6698 0.0119629H31.378C26.2895 0.0119629 22.1499 4.15178 22.1499 9.24014V20.8768C21.0678 21.4782 20.3483 22.6371 20.3483 23.9163V25.6979C20.3483 27.6146 21.9075 29.1736 23.824 29.1736H24.5608C24.8702 31.3454 26.0864 34.5279 28.3578 37.4167C28.6147 37.7434 28.8948 38.0775 29.1969 38.4127C25.1351 39.7029 22.173 43.3548 21.8054 47.665L12.2538 50.5469C10.0842 51.2013 8.49952 52.9957 8.11804 55.2294L6.67999 63.6483C6.57102 64.2865 7.00003 64.892 7.63807 65.001C8.27595 65.1103 8.88178 64.6811 8.99091 64.0429L10.429 55.624C10.6597 54.2725 11.6184 53.1872 12.9309 52.7913L21.7651 50.1258V52.4446C19.7401 52.8173 18.0171 54.2083 17.3074 56.1355C17.119 56.6471 17.0019 57.1827 16.9594 57.7274L16.1056 68.6863C16.0412 69.5118 16.3269 70.3339 16.8889 70.9413C17.451 71.5488 18.2482 71.8974 19.076 71.8974H20.5375C21.1849 71.8974 21.7098 71.3728 21.7098 70.7252C21.7098 70.0776 21.1849 69.5531 20.5375 69.5531H19.076C18.8995 69.5531 18.7297 69.479 18.6098 69.3492C18.49 69.2198 18.4292 69.0447 18.443 68.8688L19.2968 57.9097C19.3226 57.5797 19.3934 57.2553 19.5075 56.9455C20.0012 55.6049 21.3345 54.697 22.8256 54.6865L23.0187 54.6851C23.0277 54.685 23.0366 54.685 23.0456 54.685C24.4947 54.685 25.7775 55.5067 26.3186 56.7842C26.4704 57.1424 26.5627 57.521 26.593 57.9097L27.4471 68.8689C27.4607 69.0446 27.3999 69.2197 27.2801 69.3494C27.1604 69.4788 26.9904 69.5531 26.8139 69.5531H25.3524C24.705 69.5531 24.1801 70.0778 24.1801 70.7252C24.1801 71.3726 24.705 71.8974 25.3524 71.8974H26.8139C27.6417 71.8974 28.4391 71.549 29.001 70.9413C29.5632 70.3335 29.8488 69.5117 29.7844 68.6865L28.9303 57.7274C28.8803 57.0861 28.7279 56.4609 28.4772 55.8694C27.7051 54.0469 26.0539 52.7798 24.1093 52.4369V49.4185L28.1389 48.2027C28.5055 48.9748 29.2321 50.6435 30.6712 54.2405C32.1216 57.8698 33.9244 62.5218 35.6534 67.0442C35.6658 67.0822 35.68 67.1193 35.6959 67.1555C36.8498 70.1747 37.969 73.1318 38.9263 75.6827C39.098 76.1401 39.5353 76.4431 40.0238 76.4431C40.5124 76.4431 40.9497 76.1401 41.1214 75.6827C42.0785 73.1318 43.1978 70.1747 44.3517 67.1555C44.3678 67.1193 44.3819 67.0821 44.3943 67.0442C46.122 62.5245 47.9239 57.8755 49.3736 54.2472C50.8147 50.6455 51.5418 48.9755 51.9086 48.2027L55.9382 49.4185V56.3422C53.1462 56.8846 51.0314 59.347 51.0314 62.2953C51.0314 65.6396 53.7522 68.3606 57.0967 68.3606C60.4412 68.3606 63.162 65.6398 63.162 62.2953C63.162 59.3567 61.0611 56.9002 58.2826 56.3472V50.126L67.1169 52.7915C68.4294 53.1874 69.388 54.2727 69.6189 55.6241L73.1601 76.3557C73.2188 76.6995 73.1274 77.0357 72.9024 77.3022C72.6776 77.5686 72.3616 77.7156 72.0128 77.7156H8.03487C7.68606 77.7156 7.37025 77.5688 7.14527 77.3022C6.92045 77.0357 6.82883 76.6997 6.88762 76.3557L8.05628 69.5138C8.16526 68.8756 7.73625 68.2701 7.09821 68.1612C6.46033 68.0517 5.8545 68.4812 5.74537 69.1192L4.5767 75.9611C4.40238 76.9824 4.68552 78.0222 5.35342 78.8141C6.02163 79.6058 6.99893 80.0598 8.03487 80.0598H72.0128C73.0487 80.0598 74.0262 79.6058 74.6943 78.8139C75.3622 78.022 75.6453 76.9822 75.471 75.961ZM55.5677 23.7901C56.1923 23.6344 56.6936 23.6372 56.6993 23.6373C56.9013 23.64 57.0976 23.5928 57.2721 23.5013C57.3243 23.6312 57.3551 23.7709 57.3551 23.9163V25.6979C57.3551 26.3218 56.8476 26.8292 56.2238 26.8292H55.5677V23.7901ZM24.48 26.8292H23.8238C23.2 26.8292 22.6925 26.3218 22.6925 25.6979V23.9163C22.6925 23.7709 22.7235 23.6312 22.7756 23.5015C22.9499 23.5929 23.1462 23.6402 23.3484 23.6373C23.3573 23.6389 23.8573 23.6361 24.48 23.7907V26.8292ZM26.8244 28.1436V25.064C27.1796 25.1704 27.5681 25.1559 27.9268 25.0063C28.542 24.7496 28.9394 24.1534 28.9394 23.4872V12.6661C28.9394 11.3491 30.011 10.2775 31.328 10.2775H34.5635C35.1401 10.2775 35.7034 10.4784 36.1498 10.8433L36.4672 11.1028C37.4679 11.9211 38.731 12.3715 40.0238 12.3715C41.3166 12.3715 42.5797 11.921 43.5805 11.1028L43.8979 10.8433C44.3441 10.4784 44.9075 10.2775 45.4841 10.2775H48.7197C50.0367 10.2775 51.1083 11.3491 51.1083 12.6661V23.4874C51.1083 24.1534 51.5057 24.7497 52.1209 25.0064C52.3263 25.0921 52.5415 25.1337 52.7547 25.1337C52.9137 25.1337 53.0715 25.1104 53.2233 25.0651V28.1436C53.2233 29.8551 52.0401 33.1787 49.8472 35.9675C49.1208 36.8914 48.1872 37.8838 47.0376 38.7512C47.0011 38.7756 46.9663 38.802 46.933 38.8302C45.1521 40.1469 42.8621 41.1556 40.0238 41.1556C37.1856 41.1556 34.8956 40.1469 33.1146 38.83C33.0812 38.802 33.0465 38.7756 33.0103 38.7514C31.8607 37.8838 30.927 36.8914 30.2005 35.9675C28.0077 33.1788 26.8244 29.8551 26.8244 28.1436ZM47.7034 47.0823L40.0238 52.8223L32.3442 47.0823C33.1058 46.1144 33.5325 44.8719 33.5325 43.7631V41.8736C35.3384 42.8448 37.4933 43.5002 40.0238 43.5002C42.5544 43.5002 44.7094 42.8448 46.5152 41.8736V43.7631C46.5152 44.8719 46.9419 46.1144 47.7034 47.0823ZM30.3879 45.7739C29.7619 45.5354 29.0679 45.4963 28.4114 45.6744C28.3827 45.6811 28.3545 45.6888 28.3272 45.6969L24.2774 46.9189C24.9623 43.551 27.6971 40.8703 31.1881 40.3511V43.7631C31.1881 44.4986 30.8598 45.2589 30.3879 45.7739ZM33.5694 55.1839C33.5672 55.1784 33.565 55.1729 33.5629 55.1676C33.5035 55.0174 33.4449 54.8691 33.3867 54.7226C33.3763 54.6961 33.3658 54.6696 33.3553 54.6434C33.2984 54.5 33.242 54.3577 33.1863 54.2178C33.1824 54.208 33.1785 54.1983 33.1746 54.1883C33.0009 53.7516 32.8334 53.3328 32.6724 52.9314C32.6607 52.9023 32.649 52.8728 32.6372 52.8439C32.591 52.7288 32.5455 52.6154 32.5003 52.5035C32.4837 52.4624 32.4673 52.4217 32.4509 52.3811C32.4071 52.2726 32.3636 52.1647 32.3208 52.0592C32.308 52.0276 32.2955 51.997 32.2828 51.9655C32.2051 51.7738 32.1291 51.587 32.055 51.4049C32.035 51.3556 32.0145 51.3054 31.9947 51.2568C31.9656 51.1858 31.9373 51.1167 31.9088 51.0472C31.8782 50.9721 31.8475 50.8977 31.8175 50.8245C31.8063 50.7972 31.7945 50.7682 31.7833 50.741C31.7742 50.7192 31.7659 50.699 31.757 50.6773C31.6216 50.3483 31.493 50.0383 31.3709 49.7467C31.3699 49.7444 31.3688 49.742 31.3679 49.7397C31.3028 49.5844 31.2392 49.4328 31.1781 49.2883C31.1463 49.2134 31.1151 49.1398 31.0844 49.0675L37.6892 54.0039L34.9294 55.1764C34.9245 55.1784 34.9195 55.1804 34.9147 55.1826L33.7624 55.6721C33.6971 55.5069 33.6331 55.3449 33.5694 55.1839ZM36.3663 62.3613C36.1348 61.7604 35.9015 61.1562 35.6678 60.5525C35.3023 59.6084 34.9531 58.7107 34.619 57.8555L35.0565 57.6696L36.8438 59.7472L36.3663 62.3613ZM40.0465 71.8885C40.0129 71.8188 39.9729 71.753 39.9266 71.6917C39.3969 70.2916 38.7246 68.5201 37.9806 66.571L39.075 60.5791H40.9727L42.0671 66.571C41.2874 68.613 40.5871 70.4594 40.0465 71.8885ZM41.4123 58.2349H38.6354L37.3213 56.7074L40.0238 55.5594L42.7264 56.7074L41.4123 58.2349ZM44.3799 60.5525C44.1461 61.1562 43.9129 61.7604 43.6813 62.3613L43.2039 59.7471L44.9912 57.6694L45.4286 57.8553C45.0945 58.7105 44.7454 59.6084 44.3799 60.5525ZM48.8697 49.2883C48.8117 49.4253 48.7514 49.5689 48.69 49.7156C48.682 49.7347 48.6739 49.7539 48.6659 49.7731C48.6051 49.9185 48.5431 50.0671 48.479 50.2217C48.4748 50.2318 48.4704 50.2426 48.4662 50.2529C48.4109 50.3863 48.3541 50.5239 48.2964 50.6641C48.2856 50.6904 48.2755 50.7146 48.2647 50.741C48.2519 50.7725 48.2381 50.8058 48.2251 50.8375C48.1995 50.9 48.1734 50.9638 48.1471 51.0276C48.1149 51.1063 48.0829 51.1846 48.0499 51.2651C48.0394 51.2908 48.0286 51.3175 48.018 51.3433C47.9364 51.5432 47.8526 51.7493 47.7669 51.961C47.7535 51.9941 47.7402 52.0267 47.7267 52.0603C47.6844 52.1649 47.6412 52.2717 47.5979 52.3791C47.581 52.4211 47.564 52.463 47.5469 52.5055C47.5022 52.6164 47.457 52.7286 47.4114 52.8425C47.3986 52.8742 47.3856 52.9067 47.3728 52.9386C47.2138 53.3345 47.0488 53.7474 46.8776 54.1776C46.872 54.1919 46.8664 54.2058 46.8607 54.2202C46.8054 54.3591 46.7494 54.5005 46.6928 54.6429C46.6824 54.6695 46.6717 54.6961 46.6611 54.7228C46.6026 54.8701 46.5437 55.0189 46.4839 55.1701C46.4829 55.1729 46.4818 55.1757 46.4807 55.1784C46.4163 55.3413 46.3515 55.5051 46.2855 55.6724L45.1322 55.1825C45.1281 55.1807 45.1241 55.179 45.1202 55.1773L42.3588 54.0042L48.9636 49.0679C48.9326 49.1398 48.9013 49.2133 48.8697 49.2883ZM51.7205 45.6971C51.7204 45.6971 51.72 45.6969 51.7199 45.6969C51.719 45.6966 51.7179 45.6965 51.7169 45.696C51.0368 45.492 50.3114 45.5257 49.6599 45.7739C49.1879 45.2589 48.8597 44.4986 48.8597 43.7631V40.3494C52.3726 40.8672 55.0991 43.5227 55.7751 46.9203L51.7205 45.6971ZM60.8177 62.2953C60.8177 64.3472 59.1484 66.0163 57.0967 66.0163C55.045 66.0163 53.3757 64.3472 53.3757 62.2953C53.3757 60.2435 55.045 58.5743 57.0967 58.5743C59.1484 58.5743 60.8177 60.2435 60.8177 62.2953Z" fill="white"/>
</g>
<defs>
<clipPath id="clip0_1_606">
<rect width="80.0479" height="80.0479" fill="white" transform="translate(0 0.0119629)"/>
</clipPath>
</defs>
</svg>
