<svg width="30" height="25" viewBox="0 0 30 25" fill="none" xmlns="http://www.w3.org/2000/svg">
<path d="M14.9997 14.0667C17.577 14.0667 19.6663 11.9774 19.6663 9.40006C19.6663 6.82274 17.577 4.7334 14.9997 4.7334C12.4223 4.7334 10.333 6.82274 10.333 9.40006C10.333 11.9774 12.4223 14.0667 14.9997 14.0667Z" stroke="#01CFC9" stroke-width="2" stroke-linecap="round" stroke-linejoin="round"/>
<path d="M21.5335 23.4C21.5335 21.6673 20.8451 20.0055 19.6199 18.7803C18.3947 17.555 16.7329 16.8667 15.0001 16.8667C13.2674 16.8667 11.6056 17.555 10.3804 18.7803C9.15513 20.0055 8.4668 21.6673 8.4668 23.4H21.5335Z" stroke="#01CFC9" stroke-width="2" stroke-linecap="round" stroke-linejoin="round"/>
<path d="M22.4667 10.3333C23.2622 10.3333 24.0445 10.13 24.7392 9.74264C25.434 9.35527 26.0182 8.79674 26.4364 8.12008C26.8546 7.44342 27.0929 6.67109 27.1287 5.87643C27.1644 5.08177 26.9965 4.29116 26.6407 3.57967C26.285 2.86819 25.7533 2.25945 25.0961 1.81125C24.4389 1.36306 23.6781 1.0903 22.8858 1.01886C22.0936 0.947421 21.2962 1.07968 20.5695 1.40309C19.8427 1.72649 19.2107 2.2303 18.7334 2.86667" stroke="#01CFC9" stroke-width="2" stroke-linecap="round" stroke-linejoin="round"/>
<path d="M23.4001 19.6666H29.0001C29.0001 17.9339 28.3118 16.2721 27.0866 15.0469C25.8613 13.8216 24.1995 13.1333 22.4668 13.1333" stroke="#01CFC9" stroke-width="2" stroke-linecap="round" stroke-linejoin="round"/>
<path d="M11.2672 2.86667C10.7899 2.2303 10.1579 1.72649 9.43113 1.40309C8.70437 1.07968 7.90701 0.947421 7.11476 1.01886C6.32251 1.0903 5.56167 1.36306 4.90449 1.81125C4.24731 2.25945 3.7156 2.86819 3.35986 3.57967C3.00412 4.29116 2.83615 5.08177 2.8719 5.87643C2.90766 6.67109 3.14595 7.44342 3.56415 8.12008C3.98235 8.79674 4.56658 9.35527 5.26135 9.74264C5.95613 10.13 6.73839 10.3333 7.53385 10.3333" stroke="#01CFC9" stroke-width="2" stroke-linecap="round" stroke-linejoin="round"/>
<path d="M7.53333 13.1333C5.80059 13.1333 4.13881 13.8216 2.91357 15.0469C1.68833 16.2721 1 17.9339 1 19.6666H6.6" stroke="#01CFC9" stroke-width="2" stroke-linecap="round" stroke-linejoin="round"/>
</svg>
