<svg width="18" height="16" viewBox="0 0 18 16" fill="none" xmlns="http://www.w3.org/2000/svg">
<path d="M17.9994 11.9456V14.3475C18.0005 14.5705 17.9488 14.7912 17.8479 14.9955C17.7469 15.1998 17.5988 15.3832 17.413 15.5339C17.2273 15.6847 17.008 15.7994 16.7693 15.8709C16.5305 15.9423 16.2775 15.9689 16.0265 15.9488C13.2415 15.6811 10.5664 14.8392 8.21601 13.4908C6.02929 12.2616 4.17534 10.6215 2.7858 8.687C1.25627 6.5983 0.304417 4.22023 0.0073459 1.74547C-0.0152705 1.52406 0.014473 1.30092 0.0946821 1.09025C0.174891 0.879569 0.303809 0.685975 0.473227 0.52179C0.642645 0.357605 0.848852 0.226425 1.07872 0.136604C1.30858 0.0467825 1.55707 0.000286974 1.80837 7.76237e-05H4.52347C4.96269 -0.00374658 5.3885 0.133847 5.72152 0.387212C6.05455 0.640577 6.27207 0.992425 6.33354 1.37717C6.44814 2.14584 6.66067 2.90057 6.96707 3.62697C7.08883 3.91353 7.11519 4.22497 7.043 4.52439C6.97082 4.8238 6.80313 5.09863 6.5598 5.31631L5.41041 6.33312C6.69877 8.33755 8.57482 9.9972 10.8406 11.1369L11.99 10.1201C12.2361 9.90488 12.5467 9.75653 12.8852 9.69267C13.2236 9.62882 13.5757 9.65213 13.8996 9.75985C14.7207 10.0309 15.5739 10.2189 16.4428 10.3203C16.8824 10.3752 17.2839 10.5711 17.5709 10.8707C17.858 11.1704 18.0105 11.5529 17.9994 11.9456Z" fill="#0096FF"/>
</svg>
