<svg width="23" height="22" viewBox="0 0 23 22" fill="none" xmlns="http://www.w3.org/2000/svg">
<path d="M22.2833 16.3742L22.0749 19.3526C22.0569 19.6292 21.9737 19.8984 21.8308 20.1429C21.6878 20.3875 21.4883 20.6021 21.2449 20.7729C21.0015 20.9437 20.7196 21.067 20.4174 21.1349C20.1151 21.2027 19.799 21.2137 19.4895 21.167C16.0594 20.5935 12.8152 19.3175 10.0177 17.4416C7.41273 15.7276 5.25607 13.533 3.70084 11.0137C1.9854 8.29097 1.01138 5.25956 0.85769 2.16504C0.848852 1.88854 0.905092 1.61442 1.02283 1.36013C1.14057 1.10585 1.31722 0.876975 1.54154 0.68808C1.76587 0.499185 2.03295 0.354409 2.32578 0.262969C2.61861 0.17153 2.93077 0.135432 3.24239 0.156972L6.60917 0.392506C7.15414 0.425866 7.6702 0.633423 8.06118 0.976489C8.45216 1.31956 8.69137 1.77472 8.73422 2.25715C8.80964 3.22025 9.0077 4.17456 9.32463 5.10188C9.45076 5.4678 9.45642 5.85627 9.34094 6.22128C9.22546 6.5863 8.99368 6.91254 8.67306 7.16137L7.15959 8.32252C8.5833 10.9198 10.7657 13.1405 13.4764 14.7504L14.9899 13.5893C15.3137 13.3437 15.7118 13.1867 16.137 13.1368C16.5622 13.087 16.9968 13.1465 17.3891 13.3082C18.3838 13.7155 19.4254 14.0226 20.494 14.2237C21.0344 14.3299 21.5153 14.6077 21.8452 15.0041C22.1751 15.4006 22.331 15.8882 22.2833 16.3742Z" fill="white"/>
</svg>
