<svg width="22" height="32" viewBox="0 0 22 32" fill="none" xmlns="http://www.w3.org/2000/svg">
<path fill-rule="evenodd" clip-rule="evenodd" d="M20.3726 13.446V16.369L17.8385 17.8313L16.377 20.3631H16.0055C16.0055 20.3638 16.0062 20.3653 16.0062 20.366V31.2729C16.0062 31.2758 16.0047 31.278 16.0047 31.2809C16.0076 31.4656 15.94 31.6517 15.799 31.7928C15.6579 31.9338 15.4717 32.0015 15.2863 31.9985C15.2841 31.9985 15.282 32 15.2791 32C15.0464 32 14.8479 31.8837 14.7155 31.7128L10.9163 27.9136L7.11709 31.7128C6.98475 31.8837 6.78698 32 6.55357 32C6.55066 32 6.54848 31.9985 6.5463 31.9985C6.36088 32.0015 6.17474 31.9338 6.03367 31.7928C5.89334 31.6517 5.82499 31.4656 5.8279 31.2809C5.8279 31.278 5.82644 31.2758 5.82644 31.2729V20.366C5.82644 20.3653 5.82717 20.3638 5.82717 20.3631H5.45852L3.99555 17.8313L1.46225 16.369V13.446L0 10.9141L1.46225 8.38156V5.45634L3.99555 3.99264L5.45852 1.46297H8.38519L10.9156 0L13.4489 1.46297H16.3756L17.8371 3.99264L20.3711 5.45634V8.38083L21.8326 10.9141L20.3726 13.446ZM7.28069 20.366V29.5416L10.3273 26.4949C10.3506 26.4608 10.3659 26.4215 10.3964 26.3902C10.5397 26.2477 10.7287 26.1816 10.9163 26.1859C11.1039 26.1816 11.293 26.2477 11.4362 26.3902C11.4667 26.4215 11.4813 26.4608 11.5053 26.4949L14.5519 29.5416V20.366C14.5519 20.3653 14.5527 20.3638 14.5527 20.3631H13.4496L10.9163 21.8268L8.38592 20.3631H7.27997C7.27997 20.3638 7.28069 20.3653 7.28069 20.366ZM18.9147 8.76984V6.29544L16.7711 5.05715L15.5357 2.91722H13.0591L10.9178 1.68038L8.77784 2.91722H6.30126L5.06442 5.05642L2.92013 6.29471V8.76984L1.68329 10.9141L2.92013 13.057V15.5292L5.06442 16.7668L6.30126 18.9081H8.77711L10.917 20.145L13.0584 18.9081H15.5343L16.7697 16.7668L18.914 15.5292V13.0577L20.1501 10.9141L18.9147 8.76984Z" fill="#01CFC9"/>
</svg>
