<svg width="88" height="88" viewBox="0 0 88 88" fill="none" xmlns="http://www.w3.org/2000/svg">
<path d="M51.6077 63.2849C49.5203 61.1977 46.1239 61.1977 44.0366 63.2849L39.1181 68.2035C39.0202 68.3013 38.8844 68.3457 38.7545 68.3241C32.297 67.2116 27.9978 63.7105 26.01 61.7225C21.4001 57.1128 19.8969 51.7644 19.4111 48.9867C19.3873 48.8512 19.4317 48.712 19.5296 48.6143L24.4478 43.6961C26.526 41.6362 26.5007 38.1581 24.4478 36.125L17.3574 29.0346C15.2701 26.9474 11.8737 26.9472 9.78632 29.0346L4.24455 34.5764C0.327058 38.4939 -1.02393 44.3873 0.802596 49.5905C3.87371 58.3394 8.71577 66.0601 15.1943 72.5387C19.0114 76.3557 23.3313 79.6488 28.0339 82.3265C28.6455 82.6751 29.4239 82.4613 29.7723 81.8494C30.1206 81.2376 29.9071 80.4593 29.2953 80.1109C24.7908 77.5461 20.653 74.3919 16.9971 70.7358C10.7909 64.5297 6.15163 57.1313 3.20816 48.7458C1.70421 44.4617 2.81862 39.6074 6.04728 36.3788L11.5891 30.837C12.6632 29.7495 14.4778 29.7503 15.5548 30.837L22.6452 37.9274C23.7386 39.0209 23.7386 40.7999 22.6452 41.8932L17.727 46.8114C17.0426 47.4958 16.7335 48.473 16.9 49.4258C17.4376 52.5 19.102 58.4196 24.2076 63.5252C26.4092 65.7268 31.1706 69.6042 38.3222 70.8364C39.2668 70.9984 40.2386 70.6887 40.9211 70.006L45.8395 65.0876C46.933 63.9945 48.7119 63.9938 49.8053 65.0876L56.8957 72.1782C57.9742 73.2461 57.981 75.0705 56.8957 76.144L51.3539 81.6857C48.1253 84.9144 43.2708 86.0285 38.9869 84.525C37.4683 83.9919 35.952 83.3891 34.4798 82.7332C33.8368 82.4466 33.0833 82.7359 32.7967 83.3787C32.5102 84.0218 32.7993 84.7754 33.4424 85.0618C34.9776 85.7457 36.559 86.3745 38.1425 86.9304C43.3206 88.7485 49.2296 87.416 53.1565 83.4885L58.6982 77.9465C60.7765 75.8868 60.7505 72.4077 58.6982 70.3753L51.6077 63.2849ZM80.1394 7.09632C74.4241 1.55218 66.0718 -0.565478 58.3422 1.56985C57.6636 1.75732 57.2655 2.45923 57.453 3.13787C57.6404 3.81651 58.3424 4.2142 59.0212 4.02708C65.8833 2.13173 73.2955 4.0089 78.3646 8.92624C82.2532 12.6983 84.4172 17.7562 84.4584 23.1679C84.4995 28.581 82.4145 33.6698 78.5872 37.4973C75.4789 40.6054 71.5417 42.5688 67.201 43.1747C62.9998 43.7615 58.6403 42.9845 54.9256 40.9878C54.3647 40.6865 53.7005 40.628 53.1029 40.8279L43.7881 43.9446L46.9051 34.6293C47.1048 34.0322 47.0465 33.3684 46.7452 32.8077C44.7343 29.0666 43.9618 24.678 44.5696 20.4501C45.1981 16.0792 47.201 12.1267 50.3619 9.02006C51.4418 7.95868 52.6402 7.02222 53.9235 6.23669C54.5239 5.86907 54.7126 5.08455 54.345 4.4841C53.9775 3.88381 53.1928 3.69499 52.5924 4.0626C51.1444 4.94893 49.7927 6.00537 48.575 7.20204C45.0125 10.7035 42.7548 15.1591 42.0463 20.0874C41.3661 24.8175 42.2206 29.7277 44.4522 33.926L41.2082 43.6206C40.9303 44.4512 41.1424 45.3518 41.7617 45.9711C42.3845 46.5938 43.2915 46.7997 44.1121 46.5245L53.8067 43.2807C57.9759 45.4971 62.8533 46.3552 67.5533 45.6997C72.4475 45.0163 76.8865 42.8033 80.3898 39.3C84.7038 34.986 87.0539 29.25 87.0075 23.1487C86.9611 17.0485 84.5221 11.3476 80.1394 7.09632ZM66.1428 10.8248H62.6898C61.3523 10.8248 60.2642 11.9131 60.2642 13.2506V19.1699H54.3448C53.0073 19.1699 51.9192 20.2581 51.9192 21.5955V25.0485C51.9192 26.386 53.0074 27.4741 54.3448 27.4741H60.2641V33.3933C60.2641 34.7309 61.3523 35.8189 62.6897 35.8189H66.1427C67.4802 35.8189 68.5685 34.7307 68.5685 33.3933V27.4741H74.4877C75.8253 27.4741 76.9133 26.3859 76.9133 25.0485V21.5955C76.9133 20.2579 75.8253 19.1699 74.4877 19.1699H68.5685V13.2506C68.5686 11.9131 67.4804 10.8248 66.1428 10.8248ZM74.3641 21.7192V24.9249H67.8694C66.8492 24.9249 66.0193 25.7548 66.0193 26.7751V33.2698H62.8134V26.7751C62.8134 25.7548 61.9835 24.9249 60.9633 24.9249H54.4685V21.7192H60.9633C61.9835 21.7192 62.8134 20.8893 62.8134 19.8691V13.3742H66.0193V19.8691C66.0193 20.8893 66.8492 21.7192 67.8694 21.7192H74.3641Z" fill="white"/>
</svg>
