<svg width="78" height="84" viewBox="0 0 78 84" fill="none" xmlns="http://www.w3.org/2000/svg">
<path d="M24.5686 53.7409V53.1171L23.9552 53.0035C18.6528 52.0212 12.8466 47.9126 8.34174 42.46C3.84 37.0113 0.762039 30.3704 0.750036 24.4696C0.737936 18.5159 3.81552 13.8384 9.44245 11.3187L9.88593 11.1201V10.6342V7.34135C9.88593 3.70737 12.8432 0.75 16.4773 0.75C20.1114 0.75 23.0686 3.70737 23.0686 7.34135C23.0686 10.9753 20.1112 13.9327 16.4773 13.9327H12.0669H11.9323L11.806 13.9795C9.31923 14.9023 7.38297 16.2588 6.07474 18.0446C4.76346 19.8346 4.12217 22.0029 4.13988 24.4765C4.17921 29.9687 7.41854 36.2948 11.6979 41.2109C13.8485 43.6815 16.2911 45.8313 18.7824 47.3684C21.2654 48.9005 23.8485 49.8554 26.2657 49.8554C28.4345 49.8554 30.7742 49.0396 33.0589 47.7145C35.3514 46.3848 37.6375 44.5142 39.7129 42.3328C43.8506 37.9839 47.2414 32.3024 48.1332 27.0248C48.6554 23.9384 48.312 21.2199 47.0353 18.9799C45.7578 16.7386 43.5977 15.0673 40.6592 13.9794L40.5332 13.9327H40.3988H36.0542C32.4202 13.9327 29.4629 10.9753 29.4629 7.34135C29.4629 3.70738 32.4202 0.75 36.0542 0.75C39.6882 0.75 42.6455 3.70738 42.6455 7.34135V10.6614V11.1466L43.088 11.3455C46.404 12.8362 48.8009 15.0523 50.221 17.7911C51.6419 20.5316 52.1129 23.85 51.4815 27.5896C50.5137 33.3113 47.2186 39.234 42.9096 43.9607C38.5935 48.6953 33.3521 52.1305 28.5775 53.0064L27.9629 53.1191V53.744V61.341C27.9629 71.1904 35.9748 79.384 45.8427 79.384C55.7105 79.384 63.7225 71.1904 63.7225 61.341V58.6463V58.0337L63.1222 57.9114C57.8859 56.8441 53.934 52.2024 53.934 46.6583C53.934 40.3262 59.0874 35.1728 65.4196 35.1728C71.7517 35.1728 76.9052 40.3262 76.9052 46.6583C76.9052 52.2024 72.9532 56.8441 67.7169 57.9114L67.1167 58.0337V58.6463V61.341C67.1167 73.0787 57.566 82.7782 45.8427 82.7782C34.1193 82.7782 24.5686 73.0787 24.5686 61.341V53.7409ZM62.9725 43.4612H62.2225V44.2112V49.1054V49.8554H62.9725H67.8667H68.6167V49.1054V44.2112V43.4612H67.8667H62.9725Z" stroke="white" stroke-width="1.5"/>
</svg>
