<svg width="19" height="15" viewBox="0 0 19 15" fill="none" xmlns="http://www.w3.org/2000/svg">
<path d="M18.8184 1.68698C18.149 1.97308 17.4357 2.16271 16.6921 2.25479C17.4571 1.80975 18.041 1.1104 18.3155 0.267462C17.6022 0.681808 16.8147 0.974481 15.9755 1.13781C15.2982 0.435173 14.333 0 13.28 0C11.237 0 9.59223 1.61573 9.59223 3.59648C9.59223 3.88148 9.61698 4.15552 9.67773 4.4164C6.60986 4.27062 3.89523 2.83794 2.07161 0.6555C1.75323 1.19371 1.56648 1.80975 1.56648 2.47292C1.56648 3.71815 2.22461 4.82198 3.20561 5.46104C2.61273 5.45008 2.03111 5.28237 1.53836 5.01819C1.53836 5.02915 1.53836 5.0434 1.53836 5.05765C1.53836 6.80492 2.81748 8.25623 4.49486 8.59056C4.19448 8.67058 3.86711 8.70894 3.52736 8.70894C3.29111 8.70894 3.05261 8.69579 2.82873 8.64756C3.30686 10.0715 4.66361 11.1183 6.27686 11.1523C5.02136 12.1092 3.42723 12.6858 1.70148 12.6858C1.39886 12.6858 1.10861 12.6726 0.818359 12.6365C2.45298 13.6636 4.39023 14.25 6.47936 14.25C13.2699 14.25 16.9824 8.76923 16.9824 4.0185C16.9824 3.85956 16.9767 3.7061 16.9689 3.55373C17.7012 3.04731 18.3166 2.41483 18.8184 1.68698Z" fill="white"/>
</svg>
